HIERARCHY
ROOT Hips
{
	OFFSET 0.00000 0.00000 0.00000
	CHANNELS 6 Xposition Yposition Zposition Zrotation Yrotation Xrotation 
	JOINT LHipJoint
	{
		OFFSET 0 0 0
		CHANNELS 3 Zrotation Yrotation Xrotation
		JOINT LeftUpLeg
		{
			OFFSET 1.48831 -1.59570 0.95625
			CHANNELS 3 Zrotation Yrotation Xrotation
			JOINT LeftLeg
			{
				OFFSET 2.20856 -6.06797 0.00000
				CHANNELS 3 Zrotation Yrotation Xrotation
				JOINT LeftFoot
				{
					OFFSET 2.62924 -7.22379 0.00000
					CHANNELS 3 Zrotation Yrotation Xrotation
					JOINT LeftToeBase
					{
						OFFSET 0.16802 -0.46163 2.41673
						CHANNELS 3 Zrotation Yrotation Xrotation
						End Site
						{
							OFFSET 0.00000 -0.00000 1.23760
						}
					}
				}
			}
		}
	}
	JOINT RHipJoint
	{
		OFFSET 0 0 0
		CHANNELS 3 Zrotation Yrotation Xrotation
		JOINT RightUpLeg
		{
			OFFSET -1.56796 -1.59570 0.95625
			CHANNELS 3 Zrotation Yrotation Xrotation
			JOINT RightLeg
			{
				OFFSET -2.29239 -6.29829 0.00000
				CHANNELS 3 Zrotation Yrotation Xrotation
				JOINT RightFoot
				{
					OFFSET -2.66963 -7.33475 0.00000
					CHANNELS 3 Zrotation Yrotation Xrotation
					JOINT RightToeBase
					{
						OFFSET -0.18185 -0.49964 2.34359
						CHANNELS 3 Zrotation Yrotation Xrotation
						End Site
						{
							OFFSET -0.00000 -0.00000 1.20477
						}
					}
				}
			}
		}
	}
	JOINT LowerBack
	{
		OFFSET 0 0 0
		CHANNELS 3 Zrotation Yrotation Xrotation
		JOINT Spine
		{
			OFFSET 0.03505 2.15832 -0.34324
			CHANNELS 3 Zrotation Yrotation Xrotation
			JOINT Spine1
			{
				OFFSET -0.01089 2.17963 0.04689
				CHANNELS 3 Zrotation Yrotation Xrotation
				JOINT Neck
				{
					OFFSET 0 0 0
					CHANNELS 3 Zrotation Yrotation Xrotation
					JOINT Neck1
					{
						OFFSET 0.04686 1.69404 0.22159
						CHANNELS 3 Zrotation Yrotation Xrotation
						JOINT Head
						{
							OFFSET 0.00265 1.69305 -0.01513
							CHANNELS 3 Zrotation Yrotation Xrotation
							End Site
							{
								OFFSET -0.00415 1.80215 -0.03034
							}
						}
					}
				}
				JOINT LeftShoulder
				{
					OFFSET 0 0 0
					CHANNELS 3 Zrotation Yrotation Xrotation
					JOINT LeftArm
					{
						OFFSET 3.67184 1.11724 -0.19002
						CHANNELS 3 Zrotation Yrotation Xrotation
						JOINT LeftForeArm
						{
							OFFSET 5.17714 -0.00000 -0.00000
							CHANNELS 3 Zrotation Yrotation Xrotation
							JOINT LeftHand
							{
								OFFSET 3.43679 -0.00000 -0.00000
								CHANNELS 3 Zrotation Yrotation Xrotation
								JOINT LeftFingerBase
								{
									OFFSET 0 0 0
									CHANNELS 3 Zrotation Yrotation Xrotation
									JOINT LeftHandIndex1
									{
										OFFSET 0.57312 -0.00000 -0.00000
										CHANNELS 3 Zrotation Yrotation Xrotation
										End Site
										{
											OFFSET 0.46206 -0.00000 -0.00000
										}
									}
								}
								JOINT LThumb
								{
									OFFSET 0 0 0
									CHANNELS 3 Zrotation Yrotation Xrotation
									End Site
									{
										OFFSET 0.46912 -0.00000 0.46912
									}
								}
							}
						}
					}
				}
				JOINT RightShoulder
				{
					OFFSET 0 0 0
					CHANNELS 3 Zrotation Yrotation Xrotation
					JOINT RightArm
					{
						OFFSET -3.59596 0.95831 -0.26050
						CHANNELS 3 Zrotation Yrotation Xrotation
						JOINT RightForeArm
						{
							OFFSET -5.23908 -0.00000 -0.00000
							CHANNELS 3 Zrotation Yrotation Xrotation
							JOINT RightHand
							{
								OFFSET -3.46485 -0.00000 -0.00000
								CHANNELS 3 Zrotation Yrotation Xrotation
								JOINT RightFingerBase
								{
									OFFSET 0 0 0
									CHANNELS 3 Zrotation Yrotation Xrotation
									JOINT RightHandIndex1
									{
										OFFSET -0.60875 -0.00000 -0.00000
										CHANNELS 3 Zrotation Yrotation Xrotation
										End Site
										{
											OFFSET -0.49079 -0.00000 -0.00000
										}
									}
								}
								JOINT RThumb
								{
									OFFSET 0 0 0
									CHANNELS 3 Zrotation Yrotation Xrotation
									End Site
									{
										OFFSET -0.49829 -0.00000 0.49829
									}
								}
							}
						}
					}
				}
			}
		}
	}
}
MOTION
Frames: 14
Frame Time: 0.0408163
0.00 0.00 0.00 0.7964 -49.0017 50.3944 0.0000 0.0000 0.0000 -13.6506 -14.6328 -107.1162 15.2181 19.4427 75.8927 -0.3314 -18.2226 -9.5374 1.4651 7.6494 21.6542 0.0000 0.0000 0.0000 15.6220 11.6066 -113.3258 -16.5291 -19.7087 79.8042 -0.9344 6.2679 -17.2424 -0.8927 -6.0222 16.8488 3.2486 5.0287 52.8486 5.6110 6.4051 14.7000 2.0272 2.1714 -4.8066 1.9832 -3.6496 16.4094 -1.6888 -5.4980 -27.4734 -0.1047 -2.6489 -11.8216 0.0000 0.0000 0.0000 -76.4691 1.4769 52.0484 44.0362 -50.2875 -21.4947 -0.0000 0.0000 -39.9939 23.5505 5.9716 2.5963 -7.1250 0.0000 -0.0000 -2.6750 36.4782 0.5611 0.0000 0.0000 0.0000 -62.0568 46.1720 -72.6145 -21.6009 32.5231 -6.3700 0.0000 0.0000 17.1666 -35.3734 -6.8200 4.8192 7.1250 -0.0000 -0.0000 -7.4013 -38.2273 -1.2425
0.00 0.00 0.00 -2.7065 -45.5554 41.4767 0.0000 0.0000 0.0000 -12.1638 -12.7840 -90.2006 12.6696 18.6596 68.0960 0.0123 -15.8787 -11.2829 0.7676 5.5945 15.6123 0.0000 0.0000 0.0000 19.8199 9.4449 -95.0811 -13.8396 -19.0647 71.7141 -1.0349 4.4250 -18.2588 -0.3256 -3.6677 10.1436 2.8995 3.9911 38.3935 3.9220 5.1040 14.1157 0.8718 2.0083 -3.2269 -0.6257 -3.4505 9.6988 2.6694 -4.5089 -17.4835 1.3629 -2.4443 -6.8534 0.0000 -0.0000 0.0000 -76.3066 4.3101 52.5090 33.4022 -43.6369 -13.6988 -0.0000 0.0000 -33.3726 21.1796 11.8172 4.5368 -7.1250 0.0000 -0.0000 -5.4279 42.5626 0.3275 0.0000 -0.0000 0.0000 7.7104 59.9941 -5.9359 -73.5790 58.9562 -45.8289 0.0000 0.0000 5.3886 -7.4416 -21.5013 2.7409 7.1250 -0.0000 -0.0000 21.1194 -50.4171 -2.9336
0.00 0.00 0.00 -3.3559 -45.4352 39.8098 0.0000 0.0000 0.0000 -12.3932 -12.1030 -86.4316 12.1065 18.4353 66.3259 0.0488 -15.6929 -11.5339 0.7149 5.4032 15.0622 0.0000 0.0000 0.0000 20.4182 9.1983 -91.1337 -13.2309 -18.8639 69.8411 -1.0892 3.6852 -18.8412 -0.2797 -3.4015 9.3985 3.1861 3.3968 37.1755 3.3978 4.5455 13.3461 0.3775 1.8019 -3.6041 -0.8188 -3.2393 8.2550 3.2324 -4.1393 -13.8030 1.4391 -2.2586 -5.4279 -0.0000 0.0000 0.0000 -75.9001 5.5003 51.7718 32.8545 -43.2179 -13.3223 -0.0000 0.0000 -33.5513 20.6938 12.1346 4.5401 -7.1250 0.0000 -0.0000 -5.9172 42.8473 0.3155 -0.0000 0.0000 0.0000 22.2284 58.0568 6.6817 -94.0535 59.9378 -63.5097 0.0000 0.0000 5.6521 0.3326 -24.6167 -0.1386 7.1250 -0.0000 -0.0000 30.0599 -51.9630 -5.5704
0.00 0.00 0.00 -4.1860 -45.3739 36.5758 0.0000 0.0000 0.0000 -13.1522 -10.7819 -79.6056 11.1041 17.9857 63.1193 0.1039 -15.4318 -11.9268 0.6252 5.0599 14.0795 0.0000 0.0000 0.0000 21.3563 8.5415 -84.1076 -12.1871 -18.4686 66.5808 -1.1787 2.7621 -19.7917 -0.2283 -3.0754 8.4889 3.7419 2.1464 36.4918 2.3589 3.2885 12.1515 -0.5859 1.2732 -4.5857 -0.8300 -2.7638 5.8316 3.7293 -3.5012 -7.5083 1.5349 -1.8805 -3.3710 0.0000 0.0000 0.0000 -75.2741 7.5429 50.0973 32.0365 -42.5762 -12.7655 -0.0000 0.0000 -33.5321 20.0535 12.4274 4.4916 -7.1250 0.0000 -0.0000 -6.5447 43.0873 0.3103 0.0000 0.0000 0.0000 39.2331 54.3055 21.9836 -118.3648 56.7302 -84.2950 0.0000 0.0000 6.9085 10.2360 -27.4313 -4.7554 7.1250 -0.0000 -0.0000 40.9086 -52.5777 -8.8266
0.00 0.00 0.00 -5.3469 -45.6132 31.1247 0.0000 0.0000 0.0000 -14.5245 -8.1346 -68.5475 9.5487 17.1481 57.9690 0.2230 -14.9135 -12.8029 0.4851 4.4660 12.3914 0.0000 0.0000 0.0000 22.9260 7.0768 -72.7486 -10.5709 -17.7186 61.3802 -1.2817 1.9853 -20.8420 -0.1754 -2.6978 7.4384 4.3424 0.4034 37.3656 0.9901 1.4438 10.7574 -1.7182 0.4286 -6.3945 -0.3755 -2.1089 2.0780 4.1258 -2.8350 1.3087 1.3420 -1.4199 0.1240 -0.0000 0.0000 0.0000 -74.4472 10.2556 48.0503 31.1886 -41.8907 -12.1956 -0.0000 0.0000 -33.5696 19.3908 12.6197 4.3973 -7.1250 0.0000 -0.0000 -7.1765 43.2173 0.3175 -0.0000 0.0000 0.0000 54.0765 49.4381 35.8946 -137.7266 49.3606 -99.8522 0.0000 0.0000 7.6640 20.1758 -29.1154 -10.1368 7.1250 -0.0000 -0.0000 50.6195 -52.0551 -11.1549
0.00 0.00 0.00 -10.1357 -49.9768 20.2394 0.0000 0.0000 0.0000 -15.3702 0.9010 -38.3458 4.9375 13.3130 40.5518 0.6440 -11.3658 -15.3087 0.1962 2.8521 7.8673 0.0000 0.0000 0.0000 27.1354 5.5457 -40.7771 -5.6860 -14.1170 43.7082 -1.2341 -1.5962 -21.6206 -0.2674 -3.3265 9.1890 5.1167 -2.0961 31.1849 -1.1280 -1.4123 4.8315 -3.4106 -0.9459 -10.9787 1.5369 -1.2794 -5.3019 2.4761 -2.9516 24.1169 0.2915 -1.1614 8.3626 0.0000 0.0000 0.0000 -73.0791 15.7224 46.3028 28.0770 -39.1870 -10.1723 -0.0000 0.0000 -33.5619 17.9726 13.2960 4.2666 -7.1250 0.0000 -0.0000 -8.5921 43.7638 0.2642 0.0000 0.0000 0.0000 73.7578 38.1735 52.5621 -151.2344 39.8116 -109.3897 0.0000 0.0000 8.9124 29.0292 -30.2943 -15.6397 7.1250 -0.0000 -0.0000 58.4326 -51.2536 -12.6917
0.00 0.00 0.00 -9.0198 -59.3830 10.8950 0.0000 0.0000 0.0000 -18.8674 7.0957 -19.3456 2.3120 9.4878 27.3335 0.9307 -1.2337 -17.8596 0.0550 1.5137 4.1636 0.0000 0.0000 0.0000 25.2736 11.5265 -23.8692 -4.3980 -12.6719 38.1526 -0.9394 -2.8643 -19.5557 -0.4842 -4.4619 12.3800 2.9552 0.3644 20.0174 -0.5119 0.7780 5.9301 -2.4035 0.2765 -4.7174 4.1835 -1.7631 -1.3658 1.6884 -3.3406 19.1438 -0.3614 -1.3385 5.9894 0.0000 -0.0000 0.0000 -76.4081 6.5619 48.2533 21.5147 -32.4242 -6.3236 -0.0000 0.0000 -28.8495 20.2925 10.5313 3.8663 -7.1250 0.0000 -0.0000 -6.0071 41.1172 0.5776 0.0000 -0.0000 0.0000 74.9417 11.6541 56.1052 -137.7348 49.3561 -99.8585 0.0000 0.0000 3.3502 16.5836 -25.7701 -7.3772 7.1250 -0.0000 -0.0000 44.9519 -50.2082 -7.0303
0.00 0.00 0.00 -15.9165 -67.8238 15.9893 0.0000 0.0000 0.0000 -17.4499 12.2098 -17.0096 2.1633 9.1983 26.4176 1.1791 2.0067 -21.3266 0.0515 1.4639 4.0263 0.0000 0.0000 0.0000 26.2179 11.4561 -23.9790 -5.1682 -13.5707 41.5443 -0.8840 3.1963 -16.9769 -0.0478 1.4109 -3.8800 0.9900 -0.8826 17.7621 -0.7011 -1.2279 4.9766 -1.0356 -0.6935 -4.6458 2.7011 -1.7076 -1.6585 4.5266 -3.6460 17.8466 0.7606 -1.4501 5.7058 0.0000 0.0000 0.0000 -79.6106 3.7425 39.8090 15.2361 -24.4740 -3.3231 -0.0000 0.0000 -25.2557 20.1601 9.7566 3.5601 -7.1250 0.0000 -0.0000 -6.0038 40.2888 0.7002 0.0000 0.0000 0.0000 74.6092 -0.2866 55.0419 -123.8116 55.2056 -88.8103 0.0000 0.0000 2.9917 11.0070 -23.8489 -4.4967 7.1250 -0.0000 -0.0000 38.9453 -49.5991 -5.1173
0.00 0.00 0.00 -22.2747 -74.8559 21.6802 0.0000 0.0000 0.0000 -17.8103 10.5069 -13.1066 1.9191 8.6955 24.8474 1.2717 9.7302 -26.8484 0.0767 1.7871 4.9175 0.0000 0.0000 0.0000 25.0088 10.4149 -24.6855 -5.4221 -13.8439 42.6158 -1.3550 3.0580 -21.2160 -0.1904 2.8101 -7.7506 -0.9359 -1.6220 16.4408 -1.1316 -2.5414 4.6200 -0.1553 -1.3298 -4.2948 1.7708 -2.1992 -2.1916 6.0477 -4.5070 17.0828 1.3369 -1.8567 5.6194 0.0000 0.0000 0.0000 -79.5878 1.9369 36.6045 13.3190 -21.7528 -2.5703 -0.0000 0.0000 -23.2035 20.1371 9.0025 3.2839 -7.1250 0.0000 -0.0000 -5.9145 39.4918 0.8061 0.0000 0.0000 0.0000 74.9958 -4.8439 52.4568 -108.8025 58.6211 -76.2080 0.0000 0.0000 3.8700 4.5611 -22.0335 -1.7142 7.1250 -0.0000 -0.0000 32.2573 -49.0756 -3.5835
0.00 0.00 0.00 -39.9370 -80.9115 38.7602 0.0000 0.0000 0.0000 -18.0665 6.2545 -8.7250 1.6992 8.2093 23.3516 1.3822 17.8990 -34.7359 0.1960 2.8507 7.8632 0.0000 0.0000 0.0000 24.1849 8.4145 -25.2333 -5.0037 -13.3880 40.8388 -1.7069 -2.9065 -25.8691 -0.0609 1.5918 -4.3787 -1.9603 -1.9110 15.6997 -1.0525 -3.0763 4.5453 0.5809 -1.5984 -3.9187 0.4308 -3.0344 -2.4785 7.5290 -5.6955 15.8034 1.9512 -2.4571 5.3714 -0.0000 -0.0000 0.0000 -78.8500 -0.0774 34.5878 12.8149 -21.0154 -2.3865 -0.0000 0.0000 -21.0632 20.7910 8.8742 3.3521 -7.1250 0.0000 -0.0000 -5.3316 39.4078 0.7372 -0.0000 -0.0000 0.0000 76.7049 -7.2634 47.6523 -90.9085 59.9969 -60.7868 0.0000 0.0000 5.8343 -1.2103 -20.2583 0.4191 7.1250 -0.0000 -0.0000 26.1894 -48.3580 -2.3177
0.00 0.00 0.00 -91.6630 -84.2112 90.2857 0.0000 0.0000 0.0000 -18.3493 5.9748 -5.6637 1.4116 7.5147 21.2494 2.0309 21.4841 -41.3500 0.4224 4.1715 11.5596 0.0000 0.0000 0.0000 23.3458 5.8854 -26.0303 -4.3466 -12.6079 37.9178 -2.0483 -7.4900 -30.5618 -0.0094 -0.6259 1.7198 -2.6044 -2.1066 14.7070 -0.7954 -3.3959 4.4550 1.2255 -1.7654 -3.4203 -0.6889 -4.0920 -2.9030 8.3564 -7.1589 15.2118 2.2977 -3.1959 5.3827 0.0000 0.0000 0.0000 -77.7359 -1.3172 32.8472 13.5306 -22.0598 -2.6493 -0.0000 0.0000 -21.2798 20.7260 10.2972 3.8695 -7.1250 0.0000 -0.0000 -5.5898 40.9095 0.5659 0.0000 0.0000 0.0000 79.1979 -8.0083 41.3655 -70.3276 58.4860 -43.0498 0.0000 0.0000 6.3326 -4.5990 -19.8931 1.5679 7.1250 -0.0000 -0.0000 22.9643 -48.5054 -2.0877
0.00 0.00 0.00 -162.1370 -76.9290 161.0430 0.0000 0.0000 0.0000 -20.8869 4.6046 0.6821 0.8036 5.7213 15.9778 5.6738 24.1125 -56.3893 1.2940 7.2075 20.3315 0.0000 0.0000 0.0000 21.2285 1.9374 -27.8869 -3.8060 -11.8977 35.3712 -3.0172 -12.3153 -38.8376 -0.4375 -4.2446 11.7657 -4.5463 -2.2640 12.1791 -0.3526 -3.7349 4.2574 2.6954 -1.9661 -2.0899 -2.2013 -5.7990 -2.5372 10.1263 -9.4336 12.9010 2.9728 -4.3751 4.8701 0.0000 -0.0000 0.0000 -76.1621 -2.4163 29.9232 15.2801 -24.5349 -3.3414 -0.0000 0.0000 -23.0383 21.8462 9.3825 3.7394 -7.1250 0.0000 -0.0000 -4.4818 40.0349 0.5498 0.0000 -0.0000 0.0000 81.5719 -7.4953 31.8007 -43.6936 50.1122 -21.2316 0.0000 0.0000 4.0567 -6.0937 -21.7585 2.2663 7.1250 -0.0000 -0.0000 22.5014 -50.4457 -3.1592
0.00 0.00 0.00 -176.8790 -49.9723 173.3780 0.0000 0.0000 0.0000 -6.4202 23.9710 -1.7522 4.8863 13.2546 40.3291 -1.9302 25.0528 -18.6206 0.1870 2.7849 7.6805 0.0000 0.0000 0.0000 29.6656 -5.4122 -12.7861 -2.4118 -9.6757 27.9329 -1.8681 -9.1422 -30.4699 -0.2666 -3.3215 9.1751 -0.3136 -3.0043 9.6199 -0.2390 -4.2715 4.5503 0.3553 -2.2443 -0.6558 -1.4174 -4.4319 -2.7359 9.8900 -7.2043 9.1876 2.9232 -3.3728 3.5973 0.0000 -0.0000 0.0000 -81.9236 2.1457 22.4427 19.8748 -30.4912 -5.4677 -0.0000 0.0000 -26.8822 20.0293 9.0730 3.2901 -7.1250 0.0000 -0.0000 -6.0177 39.5576 0.8106 0.0000 -0.0000 0.0000 85.9470 -8.7698 17.0670 -15.0035 24.1510 -3.2274 0.0000 0.0000 6.1204 -9.9817 -14.7419 2.5643 7.1250 -0.0000 -0.0000 16.1252 -44.3198 0.2782
0.00 0.00 0.00 -175.1080 -23.1186 175.8180 0.0000 0.0000 0.0000 -14.8893 -1.2921 -29.1956 2.6181 10.0496 29.1376 -0.0223 6.2554 -8.3053 0.4530 -4.3178 -11.9726 0.0000 0.0000 0.0000 34.2341 -4.4290 12.4934 -0.3944 -4.0323 11.1676 -1.3102 -0.6556 -21.8873 -0.0230 -0.9783 2.6890 7.7096 0.1851 7.5704 0.4119 0.2871 5.3204 -3.9198 0.1703 1.3629 -0.1354 -1.7177 -3.7391 6.8459 -2.9316 6.0009 2.1394 -1.3311 2.6960 -0.0000 0.0000 0.0000 -83.8869 5.4848 20.4874 15.4335 -24.7465 -3.4053 -0.0000 0.0000 -23.3446 19.5198 9.0648 3.1968 -7.1250 0.0000 -0.0000 -6.4570 39.5084 0.8781 -0.0000 0.0000 0.0000 84.5018 -0.4571 34.2154 -24.7971 35.9958 -8.1703 0.0000 0.0000 0.8277 -14.9335 -12.1805 3.2208 7.1250 -0.0000 -0.0000 11.0468 -42.3072 0.7438
